PathFileType	4	(X/Y/Z)	jw_ngait_og1.trc	
DataRate	CameraRate	NumFrames	NumMarkers	Units	OrigDataRate	OrigDataStartFrame	OrigNumFrames	
120.00	120.00	4	56	mm	120.00	155	327	
Frame#	Time	Sternum			Neck			RShoulder			LShoulder			Xiphoid			Thoracic			RAsis			LAsis			RPsis			LPsis			Lumbar			RElbow			RWrist			RRadius			RUlna			LElbow			LWrist			LUlna			LRadius			LThighSuperior			LThighInferior			LThighLateral			LPatella			LShankSuperior			LShankInferior			LShankLateral			RThighSuperior			RThighInferior			RThighLateral			RPatella			RShankSuperior			RShankInferior			RShankLateral			RHeel			RToe			RMidfootMedial			RMidfootLateral			RHindfoot			RMidfootSuperior			RToeMedial			RToeLateral			LHeel			LToe			LMidfootMedial			LMidfootLateral			LHindfoot			LMidfootSuperior			LToeMedial			LToeLateral			LShoulderCenter			Oglobal			RShoulderCenter			Sacral			Xglobal			Yglobal			Zglobal			
		X1	Y1	Z1	X2	Y2	Z2	X3	Y3	Z3	X4	Y4	Z4	X5	Y5	Z5	X6	Y6	Z6	X7	Y7	Z7	X8	Y8	Z8	X9	Y9	Z9	X10	Y10	Z10	X11	Y11	Z11	X12	Y12	Z12	X13	Y13	Z13	X14	Y14	Z14	X15	Y15	Z15	X16	Y16	Z16	X17	Y17	Z17	X18	Y18	Z18	X19	Y19	Z19	X20	Y20	Z20	X21	Y21	Z21	X22	Y22	Z22	X23	Y23	Z23	X24	Y24	Z24	X25	Y25	Z25	X26	Y26	Z26	X27	Y27	Z27	X28	Y28	Z28	X29	Y29	Z29	X30	Y30	Z30	X31	Y31	Z31	X32	Y32	Z32	X33	Y33	Z33	X34	Y34	Z34	X35	Y35	Z35	X36	Y36	Z36	X37	Y37	Z37	X38	Y38	Z38	X39	Y39	Z39	X40	Y40	Z40	X41	Y41	Z41	X42	Y42	Z42	X43	Y43	Z43	X44	Y44	Z44	X45	Y45	Z45	X46	Y46	Z46	X47	Y47	Z47	X48	Y48	Z48	X49	Y49	Z49	X50	Y50	Z50	X51	Y51	Z51	X52	Y52	Z52	X53	Y53	Z53	X54	Y54	Z54	X55	Y55	Z55	X56	Y56	Z56	

41	0.333	1234.34351	121.23936	1327.73999	1367.02405	127.90386	1444.87891	1294.83032	302.45737	1395.47070	1329.36389	-59.13984	1380.15930	1239.99170	119.61131	1211.92957	1461.38171	139.61121	1255.67139	1246.08447	268.73788	990.78973	1283.72546	2.23052	971.09033	1473.31104	175.72295	965.32245	1478.45471	115.49614	965.09515	1472.06299	154.04543	1035.28601	1368.89441	408.20892	1075.19873	1282.07434	413.98627	821.40460	1263.78479	378.55515	827.14819	1330.40088	409.74573	819.80640	1391.70447	-113.21480	1051.53979	1338.55896	-116.84362	784.37738	1389.87708	-112.70329	786.14801	1322.27771	-81.07471	807.17181	1293.71497	-38.65400	805.98035	1195.91589	0.48270	577.85815	1179.94556	5.07144	702.89380	1128.38562	52.06972	518.45264	1183.11560	12.14568	427.34726	1172.96680	51.41094	171.62233	1139.66150	85.50128	303.62906	1300.45959	311.77158	783.86096	1270.18726	289.47000	540.22321	1225.81921	261.30130	637.37616	1265.64795	245.07129	440.40079	1434.58655	307.57437	437.01132	1609.94836	256.28976	286.39706	1493.59070	223.44083	316.74698	1739.11340	197.81888	303.93414	1626.36743	264.12402	35.99694	1653.75159	193.57771	99.15820	1679.08044	301.63135	128.89615	1728.64307	282.64664	192.66348	1618.67188	241.98376	175.26965	1658.34570	207.45569	56.47207	1654.48889	298.23077	76.25439	1253.31567	94.35269	44.70715	957.93787	66.42887	71.42575	1040.67957	133.65343	45.97672	1058.23987	10.39610	40.09776	1155.39380	28.87463	19.86936	1089.36682	74.30830	116.85466	995.56958	108.36979	60.58639	1008.33807	22.10520	51.63536	1353.25806	-44.44759	1338.12488	0.00000	0.00000	0.00000	1318.02368	305.45163	1353.67493	1475.88281	145.60954	965.20880	200.00000	0.00000	0.00000	0.00000	200.00000	0.00000	0.00000	0.00000	200.00000 
42	0.342	1224.82275	120.59299	1329.97595	1357.27405	126.81138	1447.19897	1286.03455	301.68976	1397.86255	1319.25305	-60.15454	1382.17712	1230.28735	119.29817	1214.02991	1451.92444	138.37578	1258.19226	1237.25305	268.45758	992.88696	1273.67334	1.33435	973.32489	1464.36633	174.62459	967.87103	1469.45764	114.37735	967.70081	1462.60413	152.45363	1037.84888	1359.60632	406.99841	1077.16052	1271.68713	412.30692	823.63165	1253.52588	376.63962	829.51056	1320.25208	408.64044	822.05402	1379.65247	-115.04911	1053.20435	1321.91968	-118.92595	787.17719	1372.85828	-114.27561	787.47803	1312.32349	-86.19481	806.91266	1287.48438	-38.88867	808.22113	1192.64246	-0.98146	578.64673	1173.40173	6.73511	704.67108	1125.16199	50.37665	518.06842	1180.06458	11.18886	427.94910	1172.06067	50.70246	171.77080	1137.46423	84.26736	303.64090	1286.93677	309.65329	785.56879	1249.56995	288.20694	543.46155	1207.82935	260.00266	641.65320	1243.59644	241.82057	443.87921	1412.05200	306.70999	439.77835	1588.94788	255.54361	290.93799	1473.13672	221.70070	321.41119	1720.38354	200.47137	308.72873	1601.39832	259.63348	41.48023	1632.12695	191.12920	105.35387	1654.18115	300.29645	133.59599	1705.25134	283.68781	196.74191	1596.54895	239.12436	181.48889	1634.05310	204.61629	63.24193	1628.90747	295.17001	81.16942	1253.29150	94.18710	44.80176	957.81915	66.18315	71.15218	1040.66455	133.55237	45.46289	1058.20398	10.28782	39.67350	1155.46570	29.02747	20.06042	1089.14417	74.21693	116.49242	995.45319	108.16557	60.53871	1008.23132	21.92337	51.24194	1343.10767	-45.54704	1340.31311	0.00000	0.00000	0.00000	1309.15735	304.46320	1356.21716	1466.91199	144.50098	967.78589	200.00000	0.00000	0.00000	0.00000	200.00000	0.00000	0.00000	0.00000	200.00000 
43	0.350	1215.48035	119.87239	1331.94910	1347.56787	125.75919	1449.52869	1277.26221	301.08832	1400.18250	1309.17102	-61.04469	1384.30884	1221.34485	118.51020	1215.83923	1442.60205	137.20416	1260.68555	1228.49951	267.90048	994.85828	1265.40198	1.24717	975.33765	1455.46936	173.48595	970.35474	1460.53687	113.37466	970.23621	1453.91479	152.49071	1040.39075	1350.60840	405.85681	1079.13940	1261.43933	410.56607	825.92981	1243.69629	375.16373	832.09760	1310.09619	407.34998	824.23358	1367.50720	-116.76239	1054.91089	1305.22107	-120.68774	790.03589	1356.17590	-116.13202	789.29761	1290.27869	-86.22198	813.42474	1282.45752	-40.17780	809.95435	1188.55981	-1.94234	579.37177	1167.13538	7.99358	706.17773	1122.13635	48.82515	517.66101	1177.35864	10.31489	428.46832	1171.76294	50.01936	172.33400	1135.94702	83.54211	303.68240	1274.11194	307.73926	787.88892	1229.33862	286.74353	547.20197	1190.44922	258.39365	646.06055	1221.95557	238.66019	448.03445	1389.60876	305.72137	442.59668	1567.70081	254.72696	294.93304	1452.40149	219.95551	325.63458	1701.30591	203.59102	312.29733	1574.74670	254.57997	46.39477	1609.60754	188.79799	110.77709	1627.74109	299.02597	137.65576	1680.66394	285.10599	199.91216	1573.48315	236.03931	187.09311	1601.98999	204.38646	73.71522	1601.65894	292.20914	85.41154	1253.19214	94.12994	44.99290	957.70764	65.75763	70.83916	1040.54700	133.39754	45.62872	1058.14661	10.16414	39.37716	1155.28320	28.77602	19.68187	1088.82043	73.78786	116.54423	995.41895	107.88264	60.42713	1008.20636	21.65111	50.88221	1333.10632	-46.72187	1342.49219	0.00000	0.00000	0.00000	1300.43591	303.40240	1358.56567	1458.00317	143.43030	970.29547	200.00000	0.00000	0.00000	0.00000	200.00000	0.00000	0.00000	0.00000	200.00000 
44	0.358	1205.99268	119.53047	1334.06091	1337.97510	124.84086	1451.80090	1268.67566	300.51810	1402.56787	1298.97388	-61.91986	1386.34021	1211.97656	118.43339	1218.02332	1433.40503	136.11235	1263.20398	1219.88977	267.58405	996.82928	1256.76062	0.84402	977.04962	1446.65210	172.42557	972.92517	1451.68213	112.48326	972.67084	1445.12085	151.97086	1042.91003	1341.83533	404.72324	1081.10034	1251.48010	409.09506	828.32892	1233.97864	373.68469	834.89453	1300.10315	406.13248	826.61322	1355.52087	-118.49020	1056.91345	1288.59985	-122.80954	793.11517	1339.54382	-117.78346	791.13470	1273.36340	-87.73936	816.18024	1277.21033	-41.30023	811.46259	1183.56775	-2.98839	580.11725	1161.15393	9.08579	707.25922	1118.82715	47.61333	517.52588	1174.96179	9.79405	428.70322	1171.26331	49.53865	172.71086	1133.99170	82.64387	303.81180	1262.42578	307.11038	791.26898	1209.40369	285.03397	551.31195	1173.60706	256.55780	650.85339	1200.35278	235.35234	452.50391	1367.36157	304.65884	445.33264	1546.15820	253.88853	298.40128	1431.60815	218.21419	329.37601	1682.03735	206.62009	314.41321	1546.86426	250.41187	51.07859	1585.93188	186.35916	115.43816	1600.17090	297.46371	141.02171	1655.07129	286.22015	201.96100	1549.75098	232.73711	192.22601	1572.62939	203.26538	79.50105	1573.18726	288.95605	89.18534	1253.10913	94.06135	45.11243	957.67761	65.53429	70.77110	1040.43225	133.15575	45.80030	1058.13342	9.95942	39.11988	1155.28662	28.73228	19.53348	1088.68347	73.32903	116.54211	995.30865	107.74891	60.42177	1008.21820	21.56546	50.61203	1322.85059	-47.60659	1344.55469	0.00000	0.00000	0.00000	1291.75122	302.64532	1360.96069	1449.16711	142.45441	972.79797	200.00000	0.00000	0.00000	0.00000	200.00000	0.00000	0.00000	0.00000	200.00000 
